<svg xmlns="http://www.w3.org/2000/svg" width="800" height="600" viewBox="0 0 800 600">
  <defs>
    <style>
      .grid-minor { stroke: #1e293b; stroke-width: 0.5; }
      .grid-medium { stroke: #334155; stroke-width: 1; }
      .grid-major { stroke: #475569; stroke-width: 1.5; }
    </style>
  </defs>

  <!-- Background -->
  <rect width="800" height="600" fill="#0f172a"/>

  <!-- Minor grid: every 10px (vertical) -->
  <g class="grid-minor">
    <line x1="10" y1="0" x2="10" y2="600"/><line x1="20" y1="0" x2="20" y2="600"/>
    <line x1="30" y1="0" x2="30" y2="600"/><line x1="40" y1="0" x2="40" y2="600"/>
    <line x1="60" y1="0" x2="60" y2="600"/><line x1="70" y1="0" x2="70" y2="600"/>
    <line x1="80" y1="0" x2="80" y2="600"/><line x1="90" y1="0" x2="90" y2="600"/>
    <line x1="110" y1="0" x2="110" y2="600"/><line x1="120" y1="0" x2="120" y2="600"/>
    <line x1="130" y1="0" x2="130" y2="600"/><line x1="140" y1="0" x2="140" y2="600"/>
    <line x1="160" y1="0" x2="160" y2="600"/><line x1="170" y1="0" x2="170" y2="600"/>
    <line x1="180" y1="0" x2="180" y2="600"/><line x1="190" y1="0" x2="190" y2="600"/>
    <line x1="210" y1="0" x2="210" y2="600"/><line x1="220" y1="0" x2="220" y2="600"/>
    <line x1="230" y1="0" x2="230" y2="600"/><line x1="240" y1="0" x2="240" y2="600"/>
    <line x1="260" y1="0" x2="260" y2="600"/><line x1="270" y1="0" x2="270" y2="600"/>
    <line x1="280" y1="0" x2="280" y2="600"/><line x1="290" y1="0" x2="290" y2="600"/>
    <line x1="310" y1="0" x2="310" y2="600"/><line x1="320" y1="0" x2="320" y2="600"/>
    <line x1="330" y1="0" x2="330" y2="600"/><line x1="340" y1="0" x2="340" y2="600"/>
    <line x1="360" y1="0" x2="360" y2="600"/><line x1="370" y1="0" x2="370" y2="600"/>
    <line x1="380" y1="0" x2="380" y2="600"/><line x1="390" y1="0" x2="390" y2="600"/>
    <line x1="410" y1="0" x2="410" y2="600"/><line x1="420" y1="0" x2="420" y2="600"/>
    <line x1="430" y1="0" x2="430" y2="600"/><line x1="440" y1="0" x2="440" y2="600"/>
    <line x1="460" y1="0" x2="460" y2="600"/><line x1="470" y1="0" x2="470" y2="600"/>
    <line x1="480" y1="0" x2="480" y2="600"/><line x1="490" y1="0" x2="490" y2="600"/>
    <line x1="510" y1="0" x2="510" y2="600"/><line x1="520" y1="0" x2="520" y2="600"/>
    <line x1="530" y1="0" x2="530" y2="600"/><line x1="540" y1="0" x2="540" y2="600"/>
    <line x1="560" y1="0" x2="560" y2="600"/><line x1="570" y1="0" x2="570" y2="600"/>
    <line x1="580" y1="0" x2="580" y2="600"/><line x1="590" y1="0" x2="590" y2="600"/>
    <line x1="610" y1="0" x2="610" y2="600"/><line x1="620" y1="0" x2="620" y2="600"/>
    <line x1="630" y1="0" x2="630" y2="600"/><line x1="640" y1="0" x2="640" y2="600"/>
    <line x1="660" y1="0" x2="660" y2="600"/><line x1="670" y1="0" x2="670" y2="600"/>
    <line x1="680" y1="0" x2="680" y2="600"/><line x1="690" y1="0" x2="690" y2="600"/>
    <line x1="710" y1="0" x2="710" y2="600"/><line x1="720" y1="0" x2="720" y2="600"/>
    <line x1="730" y1="0" x2="730" y2="600"/><line x1="740" y1="0" x2="740" y2="600"/>
    <line x1="760" y1="0" x2="760" y2="600"/><line x1="770" y1="0" x2="770" y2="600"/>
    <line x1="780" y1="0" x2="780" y2="600"/><line x1="790" y1="0" x2="790" y2="600"/>
  </g>
  <!-- Minor grid: every 10px (horizontal) -->
  <g class="grid-minor">
    <line x1="0" y1="10" x2="800" y2="10"/><line x1="0" y1="20" x2="800" y2="20"/>
    <line x1="0" y1="30" x2="800" y2="30"/><line x1="0" y1="40" x2="800" y2="40"/>
    <line x1="0" y1="60" x2="800" y2="60"/><line x1="0" y1="70" x2="800" y2="70"/>
    <line x1="0" y1="80" x2="800" y2="80"/><line x1="0" y1="90" x2="800" y2="90"/>
    <line x1="0" y1="110" x2="800" y2="110"/><line x1="0" y1="120" x2="800" y2="120"/>
    <line x1="0" y1="130" x2="800" y2="130"/><line x1="0" y1="140" x2="800" y2="140"/>
    <line x1="0" y1="160" x2="800" y2="160"/><line x1="0" y1="170" x2="800" y2="170"/>
    <line x1="0" y1="180" x2="800" y2="180"/><line x1="0" y1="190" x2="800" y2="190"/>
    <line x1="0" y1="210" x2="800" y2="210"/><line x1="0" y1="220" x2="800" y2="220"/>
    <line x1="0" y1="230" x2="800" y2="230"/><line x1="0" y1="240" x2="800" y2="240"/>
    <line x1="0" y1="260" x2="800" y2="260"/><line x1="0" y1="270" x2="800" y2="270"/>
    <line x1="0" y1="280" x2="800" y2="280"/><line x1="0" y1="290" x2="800" y2="290"/>
    <line x1="0" y1="310" x2="800" y2="310"/><line x1="0" y1="320" x2="800" y2="320"/>
    <line x1="0" y1="330" x2="800" y2="330"/><line x1="0" y1="340" x2="800" y2="340"/>
    <line x1="0" y1="360" x2="800" y2="360"/><line x1="0" y1="370" x2="800" y2="370"/>
    <line x1="0" y1="380" x2="800" y2="380"/><line x1="0" y1="390" x2="800" y2="390"/>
    <line x1="0" y1="410" x2="800" y2="410"/><line x1="0" y1="420" x2="800" y2="420"/>
    <line x1="0" y1="430" x2="800" y2="430"/><line x1="0" y1="440" x2="800" y2="440"/>
    <line x1="0" y1="460" x2="800" y2="460"/><line x1="0" y1="470" x2="800" y2="470"/>
    <line x1="0" y1="480" x2="800" y2="480"/><line x1="0" y1="490" x2="800" y2="490"/>
    <line x1="0" y1="510" x2="800" y2="510"/><line x1="0" y1="520" x2="800" y2="520"/>
    <line x1="0" y1="530" x2="800" y2="530"/><line x1="0" y1="540" x2="800" y2="540"/>
    <line x1="0" y1="560" x2="800" y2="560"/><line x1="0" y1="570" x2="800" y2="570"/>
    <line x1="0" y1="580" x2="800" y2="580"/><line x1="0" y1="590" x2="800" y2="590"/>
  </g>

  <!-- Medium grid: every 50px -->
  <g class="grid-medium">
    <line x1="50" y1="0" x2="50" y2="600"/><line x1="150" y1="0" x2="150" y2="600"/>
    <line x1="250" y1="0" x2="250" y2="600"/><line x1="350" y1="0" x2="350" y2="600"/>
    <line x1="450" y1="0" x2="450" y2="600"/><line x1="550" y1="0" x2="550" y2="600"/>
    <line x1="650" y1="0" x2="650" y2="600"/><line x1="750" y1="0" x2="750" y2="600"/>
    <line x1="0" y1="50" x2="800" y2="50"/><line x1="0" y1="150" x2="800" y2="150"/>
    <line x1="0" y1="250" x2="800" y2="250"/><line x1="0" y1="350" x2="800" y2="350"/>
    <line x1="0" y1="450" x2="800" y2="450"/><line x1="0" y1="550" x2="800" y2="550"/>
  </g>

  <!-- Major grid: every 100px -->
  <g class="grid-major">
    <line x1="100" y1="0" x2="100" y2="600"/><line x1="200" y1="0" x2="200" y2="600"/>
    <line x1="300" y1="0" x2="300" y2="600"/><line x1="400" y1="0" x2="400" y2="600"/>
    <line x1="500" y1="0" x2="500" y2="600"/><line x1="600" y1="0" x2="600" y2="600"/>
    <line x1="700" y1="0" x2="700" y2="600"/>
    <line x1="0" y1="100" x2="800" y2="100"/><line x1="0" y1="200" x2="800" y2="200"/>
    <line x1="0" y1="300" x2="800" y2="300"/><line x1="0" y1="400" x2="800" y2="400"/>
    <line x1="0" y1="500" x2="800" y2="500"/>
  </g>

  <!-- Axis labels -->
  <text x="100" y="596" font-family="monospace" font-size="11" fill="#94a3b8" text-anchor="middle">100</text>
  <text x="200" y="596" font-family="monospace" font-size="11" fill="#94a3b8" text-anchor="middle">200</text>
  <text x="300" y="596" font-family="monospace" font-size="11" fill="#94a3b8" text-anchor="middle">300</text>
  <text x="400" y="596" font-family="monospace" font-size="11" fill="#94a3b8" text-anchor="middle">400</text>
  <text x="500" y="596" font-family="monospace" font-size="11" fill="#94a3b8" text-anchor="middle">500</text>
  <text x="600" y="596" font-family="monospace" font-size="11" fill="#94a3b8" text-anchor="middle">600</text>
  <text x="700" y="596" font-family="monospace" font-size="11" fill="#94a3b8" text-anchor="middle">700</text>
  <text x="6" y="104" font-family="monospace" font-size="11" fill="#94a3b8">100</text>
  <text x="6" y="204" font-family="monospace" font-size="11" fill="#94a3b8">200</text>
  <text x="6" y="304" font-family="monospace" font-size="11" fill="#94a3b8">300</text>
  <text x="6" y="404" font-family="monospace" font-size="11" fill="#94a3b8">400</text>
  <text x="6" y="504" font-family="monospace" font-size="11" fill="#94a3b8">500</text>

  <!-- ============================================ -->
  <!-- HEADER ZONE: y 0-75                          -->
  <!-- ============================================ -->
  <rect x="0" y="0" width="800" height="75" fill="#fbbf24" fill-opacity="0.08" stroke="#fbbf24" stroke-width="2.5" stroke-dasharray="8,4"/>
  <text x="14" y="18" font-family="monospace" font-size="13" fill="#fbbf24" font-weight="bold">HEADER ZONE (0,0) 800x75</text>
  <text x="20" y="42" font-family="monospace" font-size="18" fill="#fbbf24" font-weight="bold">"Blacksmith"</text>
  <text x="20" y="62" font-family="monospace" font-size="14" fill="#fbbf24">"Gold: XXX"</text>
  <rect x="620" y="10" width="170" height="40" fill="none" stroke="#fbbf24" stroke-width="1.5" stroke-dasharray="4,3"/>
  <text x="705" y="35" font-family="monospace" font-size="12" fill="#fbbf24" text-anchor="middle">Nav Icons</text>

  <!-- ============================================ -->
  <!-- COLUMN TITLES: y 80-108                      -->
  <!-- ============================================ -->

  <!-- REPAIR title -->
  <rect x="20" y="80" width="246" height="28" fill="#22c55e" fill-opacity="0.25" stroke="#22c55e" stroke-width="2.5"/>
  <text x="143" y="100" font-family="monospace" font-size="16" fill="#22c55e" font-weight="bold" text-anchor="middle">REPAIR</text>
  <text x="22" y="78" font-family="monospace" font-size="10" fill="#22c55e">(20,80) 246x28</text>

  <!-- CRAFT title -->
  <rect x="276" y="80" width="248" height="28" fill="#0ea5e9" fill-opacity="0.25" stroke="#0ea5e9" stroke-width="2.5"/>
  <text x="400" y="100" font-family="monospace" font-size="16" fill="#0ea5e9" font-weight="bold" text-anchor="middle">CRAFT</text>
  <text x="278" y="78" font-family="monospace" font-size="10" fill="#0ea5e9">(276,80) 248x28</text>

  <!-- UPGRADE title -->
  <rect x="534" y="80" width="246" height="28" fill="#a855f7" fill-opacity="0.25" stroke="#a855f7" stroke-width="2.5"/>
  <text x="657" y="100" font-family="monospace" font-size="16" fill="#a855f7" font-weight="bold" text-anchor="middle">UPGRADE</text>
  <text x="536" y="78" font-family="monospace" font-size="10" fill="#a855f7">(534,80) 246x28</text>

  <!-- ============================================ -->
  <!-- REPAIR COLUMN: x=20, y=112, 246x375          -->
  <!-- ============================================ -->
  <rect x="20" y="112" width="246" height="375" fill="#22c55e" fill-opacity="0.10" stroke="#22c55e" stroke-width="2.5" stroke-dasharray="6,3"/>
  <text x="24" y="128" font-family="monospace" font-size="11" fill="#22c55e" font-weight="bold">(20,112) 246x375</text>
  <text x="264" y="492" font-family="monospace" font-size="10" fill="#22c55e" text-anchor="end">end (266,487)</text>

  <!-- Repair row 1 -->
  <rect x="28" y="136" width="230" height="60" rx="4" fill="#22c55e" fill-opacity="0.08" stroke="#22c55e" stroke-width="1.2"/>
  <rect x="36" y="148" width="34" height="34" rx="3" fill="#22c55e" fill-opacity="0.3" stroke="#22c55e" stroke-width="1"/>
  <text x="36" y="164" font-family="monospace" font-size="9" fill="#22c55e" text-anchor="middle" transform="translate(17,0)">ICN</text>
  <text x="80" y="161" font-family="monospace" font-size="11" fill="#e5e7eb">Item Name</text>
  <text x="80" y="177" font-family="monospace" font-size="10" fill="#94a3b8">Dur 3/20 - 80g</text>
  <rect x="196" y="152" width="56" height="28" rx="4" fill="#22c55e" fill-opacity="0.35" stroke="#22c55e" stroke-width="1.2"/>
  <text x="224" y="170" font-family="monospace" font-size="10" fill="#ffffff" text-anchor="middle">Repair</text>

  <!-- Repair row 2 -->
  <rect x="28" y="201" width="230" height="60" rx="4" fill="#22c55e" fill-opacity="0.08" stroke="#22c55e" stroke-width="1.2"/>
  <rect x="36" y="213" width="34" height="34" rx="3" fill="#22c55e" fill-opacity="0.3" stroke="#22c55e" stroke-width="1"/>
  <text x="80" y="226" font-family="monospace" font-size="11" fill="#e5e7eb">Item Name</text>
  <text x="80" y="242" font-family="monospace" font-size="10" fill="#94a3b8">Dur 1/5 - 25g</text>
  <rect x="196" y="217" width="56" height="28" rx="4" fill="#22c55e" fill-opacity="0.35" stroke="#22c55e" stroke-width="1.2"/>
  <text x="224" y="235" font-family="monospace" font-size="10" fill="#ffffff" text-anchor="middle">Repair</text>

  <!-- Repair rows 3-5 (empty placeholders) -->
  <rect x="28" y="266" width="230" height="60" rx="4" fill="none" stroke="#22c55e" stroke-width="0.8" stroke-dasharray="3,3" opacity="0.5"/>
  <rect x="28" y="331" width="230" height="60" rx="4" fill="none" stroke="#22c55e" stroke-width="0.8" stroke-dasharray="3,3" opacity="0.5"/>
  <rect x="28" y="396" width="230" height="60" rx="4" fill="none" stroke="#22c55e" stroke-width="0.8" stroke-dasharray="3,3" opacity="0.5"/>
  <text x="143" y="475" font-family="monospace" font-size="10" fill="#22c55e" text-anchor="middle">5 rows visible / scrollable</text>

  <!-- ============================================ -->
  <!-- CRAFT COLUMN: x=276, y=112, 248x375           -->
  <!-- ============================================ -->
  <rect x="276" y="112" width="248" height="375" fill="#0ea5e9" fill-opacity="0.10" stroke="#0ea5e9" stroke-width="2.5" stroke-dasharray="6,3"/>
  <text x="280" y="128" font-family="monospace" font-size="11" fill="#0ea5e9" font-weight="bold">(276,112) 248x375</text>
  <text x="522" y="492" font-family="monospace" font-size="10" fill="#0ea5e9" text-anchor="end">end (524,487)</text>

  <!-- Craft row 1 -->
  <rect x="284" y="136" width="232" height="60" rx="4" fill="#0ea5e9" fill-opacity="0.08" stroke="#0ea5e9" stroke-width="1.2"/>
  <rect x="292" y="148" width="34" height="34" rx="3" fill="#0ea5e9" fill-opacity="0.3" stroke="#0ea5e9" stroke-width="1"/>
  <text x="292" y="164" font-family="monospace" font-size="9" fill="#0ea5e9" text-anchor="middle" transform="translate(17,0)">ICN</text>
  <text x="336" y="161" font-family="monospace" font-size="11" fill="#e5e7eb">Recipe Name</text>
  <text x="336" y="177" font-family="monospace" font-size="10" fill="#94a3b8">350g + Fire Stone</text>
  <rect x="454" y="152" width="56" height="28" rx="4" fill="#0ea5e9" fill-opacity="0.35" stroke="#0ea5e9" stroke-width="1.2"/>
  <text x="482" y="170" font-family="monospace" font-size="10" fill="#ffffff" text-anchor="middle">Craft</text>

  <!-- Craft row 2 -->
  <rect x="284" y="201" width="232" height="60" rx="4" fill="#0ea5e9" fill-opacity="0.08" stroke="#0ea5e9" stroke-width="1.2"/>
  <rect x="292" y="213" width="34" height="34" rx="3" fill="#0ea5e9" fill-opacity="0.3" stroke="#0ea5e9" stroke-width="1"/>
  <text x="336" y="226" font-family="monospace" font-size="11" fill="#e5e7eb">Recipe Name</text>
  <text x="336" y="242" font-family="monospace" font-size="10" fill="#94a3b8">350g + Wind Stone</text>
  <rect x="454" y="217" width="56" height="28" rx="4" fill="#0ea5e9" fill-opacity="0.35" stroke="#0ea5e9" stroke-width="1.2"/>
  <text x="482" y="235" font-family="monospace" font-size="10" fill="#ffffff" text-anchor="middle">Craft</text>

  <!-- Craft rows 3-5 (empty placeholders) -->
  <rect x="284" y="266" width="232" height="60" rx="4" fill="none" stroke="#0ea5e9" stroke-width="0.8" stroke-dasharray="3,3" opacity="0.5"/>
  <rect x="284" y="331" width="232" height="60" rx="4" fill="none" stroke="#0ea5e9" stroke-width="0.8" stroke-dasharray="3,3" opacity="0.5"/>
  <rect x="284" y="396" width="232" height="60" rx="4" fill="none" stroke="#0ea5e9" stroke-width="0.8" stroke-dasharray="3,3" opacity="0.5"/>
  <text x="400" y="475" font-family="monospace" font-size="10" fill="#0ea5e9" text-anchor="middle">5 rows visible / scrollable</text>

  <!-- ============================================ -->
  <!-- UPGRADE COLUMN: x=534, y=112, 246x375         -->
  <!-- ============================================ -->
  <rect x="534" y="112" width="246" height="375" fill="#a855f7" fill-opacity="0.10" stroke="#a855f7" stroke-width="2.5" stroke-dasharray="6,3"/>
  <text x="538" y="128" font-family="monospace" font-size="11" fill="#a855f7" font-weight="bold">(534,112) 246x375</text>
  <text x="778" y="492" font-family="monospace" font-size="10" fill="#a855f7" text-anchor="end">end (780,487)</text>

  <!-- Upgrade row 1 -->
  <rect x="542" y="136" width="230" height="60" rx="4" fill="#a855f7" fill-opacity="0.08" stroke="#a855f7" stroke-width="1.2"/>
  <rect x="550" y="148" width="34" height="34" rx="3" fill="#a855f7" fill-opacity="0.3" stroke="#a855f7" stroke-width="1"/>
  <text x="550" y="164" font-family="monospace" font-size="9" fill="#a855f7" text-anchor="middle" transform="translate(17,0)">ICN</text>
  <text x="594" y="161" font-family="monospace" font-size="11" fill="#e5e7eb">Unique Name</text>
  <text x="594" y="177" font-family="monospace" font-size="10" fill="#94a3b8">500g + Stone</text>
  <rect x="710" y="152" width="56" height="28" rx="4" fill="#a855f7" fill-opacity="0.35" stroke="#a855f7" stroke-width="1.2"/>
  <text x="738" y="170" font-family="monospace" font-size="10" fill="#ffffff" text-anchor="middle">Upgrade</text>

  <!-- Upgrade row 2 (already upgraded) -->
  <rect x="542" y="201" width="230" height="60" rx="4" fill="#a855f7" fill-opacity="0.08" stroke="#a855f7" stroke-width="1.2"/>
  <rect x="550" y="213" width="34" height="34" rx="3" fill="#a855f7" fill-opacity="0.3" stroke="#a855f7" stroke-width="1"/>
  <text x="594" y="226" font-family="monospace" font-size="11" fill="#e5e7eb">Unique Name</text>
  <text x="594" y="242" font-family="monospace" font-size="10" fill="#4ade80">Already Upgraded</text>
  <rect x="710" y="217" width="56" height="28" rx="4" fill="#475569" fill-opacity="0.4" stroke="#a855f7" stroke-width="0.8"/>
  <text x="738" y="235" font-family="monospace" font-size="10" fill="#94a3b8" text-anchor="middle">Done</text>

  <!-- Upgrade rows 3-5 (empty placeholders) -->
  <rect x="542" y="266" width="230" height="60" rx="4" fill="none" stroke="#a855f7" stroke-width="0.8" stroke-dasharray="3,3" opacity="0.5"/>
  <rect x="542" y="331" width="230" height="60" rx="4" fill="none" stroke="#a855f7" stroke-width="0.8" stroke-dasharray="3,3" opacity="0.5"/>
  <rect x="542" y="396" width="230" height="60" rx="4" fill="none" stroke="#a855f7" stroke-width="0.8" stroke-dasharray="3,3" opacity="0.5"/>
  <text x="657" y="475" font-family="monospace" font-size="10" fill="#a855f7" text-anchor="middle">5 rows visible / scrollable</text>

  <!-- ============================================ -->
  <!-- BACK BUTTON: x=310, y=498, 180x56             -->
  <!-- ============================================ -->
  <rect x="310" y="498" width="180" height="56" rx="6" fill="#ec4899" fill-opacity="0.20" stroke="#ec4899" stroke-width="3"/>
  <text x="400" y="532" font-family="monospace" font-size="18" fill="#ec4899" font-weight="bold" text-anchor="middle">BACK</text>
  <text x="312" y="496" font-family="monospace" font-size="10" fill="#ec4899">(310,498) 180x56</text>
  <text x="488" y="560" font-family="monospace" font-size="10" fill="#ec4899" text-anchor="end">end (490,554)</text>
  <!-- Center crosshair -->
  <line x1="394" y1="526" x2="406" y2="526" stroke="#ec4899" stroke-width="2"/>
  <line x1="400" y1="520" x2="400" y2="532" stroke="#ec4899" stroke-width="2"/>
  <text x="404" y="518" font-family="monospace" font-size="9" fill="#ec4899">center (400,526)</text>

  <!-- ============================================ -->
  <!-- GAP AND MARGIN CALLOUTS                       -->
  <!-- ============================================ -->
  <!-- Left margin -->
  <line x1="2" y1="300" x2="18" y2="300" stroke="#e5e7eb" stroke-width="1.5"/>
  <line x1="2" y1="295" x2="2" y2="305" stroke="#e5e7eb" stroke-width="1"/>
  <line x1="18" y1="295" x2="18" y2="305" stroke="#e5e7eb" stroke-width="1"/>
  <text x="10" y="292" font-family="monospace" font-size="10" fill="#e5e7eb" text-anchor="middle">20px</text>

  <!-- Gap between Repair and Craft -->
  <line x1="266" y1="300" x2="276" y2="300" stroke="#e5e7eb" stroke-width="1.5"/>
  <line x1="266" y1="295" x2="266" y2="305" stroke="#e5e7eb" stroke-width="1"/>
  <line x1="276" y1="295" x2="276" y2="305" stroke="#e5e7eb" stroke-width="1"/>
  <text x="271" y="292" font-family="monospace" font-size="10" fill="#e5e7eb" text-anchor="middle">10</text>

  <!-- Gap between Craft and Upgrade -->
  <line x1="524" y1="300" x2="534" y2="300" stroke="#e5e7eb" stroke-width="1.5"/>
  <line x1="524" y1="295" x2="524" y2="305" stroke="#e5e7eb" stroke-width="1"/>
  <line x1="534" y1="295" x2="534" y2="305" stroke="#e5e7eb" stroke-width="1"/>
  <text x="529" y="292" font-family="monospace" font-size="10" fill="#e5e7eb" text-anchor="middle">10</text>

  <!-- Right margin -->
  <line x1="780" y1="300" x2="798" y2="300" stroke="#e5e7eb" stroke-width="1.5"/>
  <line x1="780" y1="295" x2="780" y2="305" stroke="#e5e7eb" stroke-width="1"/>
  <line x1="798" y1="295" x2="798" y2="305" stroke="#e5e7eb" stroke-width="1"/>
  <text x="789" y="292" font-family="monospace" font-size="10" fill="#e5e7eb" text-anchor="middle">20px</text>

  <!-- Row height callout (left side of repair column) -->
  <line x1="14" y1="136" x2="14" y2="196" stroke="#e5e7eb" stroke-width="1"/>
  <line x1="10" y1="136" x2="18" y2="136" stroke="#e5e7eb" stroke-width="1"/>
  <line x1="10" y1="196" x2="18" y2="196" stroke="#e5e7eb" stroke-width="1"/>
  <text x="14" y="170" font-family="monospace" font-size="9" fill="#e5e7eb" text-anchor="middle" transform="rotate(-90,14,170)">65px row</text>

  <!-- ============================================ -->
  <!-- LEGEND                                        -->
  <!-- ============================================ -->
  <rect x="580" y="560" width="215" height="36" rx="4" fill="#0f172a" stroke="#64748b" stroke-width="1"/>
  <rect x="588" y="569" width="10" height="10" fill="#22c55e" rx="1"/>
  <text x="602" y="579" font-family="monospace" font-size="10" fill="#22c55e">Repair</text>
  <rect x="648" y="569" width="10" height="10" fill="#0ea5e9" rx="1"/>
  <text x="662" y="579" font-family="monospace" font-size="10" fill="#0ea5e9">Craft</text>
  <rect x="700" y="569" width="10" height="10" fill="#a855f7" rx="1"/>
  <text x="714" y="579" font-family="monospace" font-size="10" fill="#a855f7">Upgrade</text>
  <rect x="764" y="569" width="10" height="10" fill="#ec4899" rx="1"/>
  <text x="778" y="579" font-family="monospace" font-size="10" fill="#ec4899">Back</text>
  <rect x="588" y="582" width="10" height="10" fill="#fbbf24" rx="1"/>
  <text x="602" y="592" font-family="monospace" font-size="10" fill="#fbbf24">Header</text>
</svg>
